<svg height='100px' width='100px'  fill="#000000" xmlns:dc="http://purl.org/dc/elements/1.1/" xmlns:cc="http://creativecommons.org/ns#" xmlns:rdf="http://www.w3.org/1999/02/22-rdf-syntax-ns#" xmlns:svg="http://www.w3.org/2000/svg" xmlns="http://www.w3.org/2000/svg" xmlns:sodipodi="http://sodipodi.sourceforge.net/DTD/sodipodi-0.dtd" xmlns:inkscape="http://www.inkscape.org/namespaces/inkscape" version="1.1" x="0px" y="0px" viewBox="0 0 128 128" enable-background="new 0 0 128 128" xml:space="preserve"><path style="" d="M 70.099609 9 C 68.999609 9 67.900391 9.6 67.400391 10.5 L 59.900391 24.099609 L 57.599609 20.400391 C 56.999609 19.500391 56.000391 18.9 54.900391 19 C 53.800391 19.1 52.800391 19.699219 52.400391 20.699219 L 40.199219 47 C 39.699219 47.9 39 49.499219 39 49.699219 C 39 49.799219 38.900391 49.9 38.900391 50 C 37.700391 53.2 37.099609 56.6 37.099609 60 C 37.099609 68 40.599609 75.7 46.599609 81 C 47.799609 82.1 49.700781 81.999219 50.800781 80.699219 C 51.900781 79.499219 51.8 77.6 50.5 76.5 C 45.7 72.3 43 66.3 43 60 C 43 57.2 43.5 54.6 44.5 52 L 44.5 51.900391 C 44.8 51.200391 45.3 50.200781 45.5 49.800781 C 45.5 49.800781 45.499609 49.699219 45.599609 49.699219 L 55.400391 28.400391 L 57.5 31.699219 C 58 32.499219 58.999609 33 60.099609 33 C 61.199609 33 62.099609 32.4 62.599609 31.5 L 66.099609 25.099609 L 76.800781 47.900391 C 77.300781 48.800391 77.799219 49.800781 78.199219 50.800781 C 79.299219 53.600781 80 56.7 80 60 C 80 63.5 79.3 66.800781 78 69.800781 C 76.6 73.100781 76.900781 75.8 77.800781 80 C 77.900781 80.5 78.100391 81.000391 78.400391 81.400391 C 79.000391 82.100391 79.899219 82.5 80.699219 82.5 C 81.399219 82.5 81.999609 82.300781 82.599609 81.800781 C 89.199609 76.400781 93 68.5 93 60 C 93 56.5 92.3 52.999219 91 49.699219 C 90.6 48.599219 90.1 47.599609 89.5 46.599609 L 72.699219 10.699219 C 72.199219 9.6992188 71.199609 9 70.099609 9 z M 31.5 18.074219 C 30.725 18.074219 29.950391 18.350391 29.400391 18.900391 C 28.800391 19.400391 28.5 20.2 28.5 21 C 28.5 21.8 28.800391 22.599609 29.400391 23.099609 C 30.000391 23.699609 30.7 24 31.5 24 C 32.3 24 33.099609 23.699609 33.599609 23.099609 C 34.199609 22.499609 34.5 21.8 34.5 21 C 34.5 20.2 34.199609 19.400391 33.599609 18.900391 C 33.049609 18.350391 32.275 18.074219 31.5 18.074219 z M 59.099609 45.599609 L 53.300781 57.900391 L 53 58.5 C 52.8 58.9 52.500781 59.400391 52.300781 59.900391 C 51.700781 61.400391 51.400391 62.9 51.400391 64.5 C 51.400391 67.8 52.699219 70.8 54.699219 73 C 53.899219 74.3 53.499609 75.900391 53.599609 77.400391 L 56.099609 117.59961 C 56.299609 121.69961 59.700781 124.90039 63.800781 124.90039 C 67.900781 124.90039 71.3 121.69961 71.5 117.59961 L 74 77.300781 C 74.1 75.700781 73.700391 74.200391 72.900391 72.900391 C 75.000391 70.700391 76.199219 67.700391 76.199219 64.400391 C 76.499219 63.000391 76.199219 61.5 75.699219 60 C 75.399219 59.4 75.2 58.799609 75 58.599609 L 74.800781 58.199219 L 74 56.400391 L 69.300781 63.900391 L 59.099609 45.599609 z M 61.699219 75 L 66.199219 75 C 66.799219 75 67.299609 75.199609 67.599609 75.599609 C 67.999609 75.999609 68.199219 76.5 68.199219 77 L 65.699219 117.40039 C 65.699219 118.30039 64.9 119 64 119 C 63.1 119 62.300781 118.30078 62.300781 117.30078 L 59.800781 77.099609 C 59.800781 76.499609 60.000781 75.999609 60.300781 75.599609 C 60.700781 75.199609 61.199219 75 61.699219 75 z M 86.5 94.074219 C 85.725 94.074219 84.950391 94.350391 84.400391 94.900391 C 83.800391 95.500391 83.5 96.2 83.5 97 C 83.5 97.8 83.800391 98.599609 84.400391 99.099609 C 85.000391 99.699609 85.7 100 86.5 100 C 87.3 100 88.099609 99.699609 88.599609 99.099609 C 89.199609 98.499609 89.5 97.8 89.5 97 C 89.5 96.2 89.199609 95.400391 88.599609 94.900391 C 88.049609 94.350391 87.275 94.074219 86.5 94.074219 z " fill="#000000" stroke="none"></path></svg>