<?xml version="1.0" encoding="utf-8"?>
<!-- Generator: Adobe Illustrator 24.2.3, SVG Export Plug-In . SVG Version: 6.00 Build 0)  -->
<svg version="1.1" id="Layer_1" xmlns="http://www.w3.org/2000/svg" xmlns:xlink="http://www.w3.org/1999/xlink" x="0px" y="0px"
	 viewBox="0 0 43.8 98.4" style="enable-background:new 0 0 43.8 98.4;" xml:space="preserve">
<g>
	<path d="M31.6,38.9c-0.1-1-0.2-2-0.6-3c-0.2-0.5-0.4-0.9-0.5-1.1l-0.2-0.3c-0.5-0.9-1.8-0.7-2,0.3c-0.2,1.1-1.1,1.9-2.2,1.9
		c-0.8,0-1.6-0.4-2-1.2l-3.8-6.9c-0.9-1.6-3.4-1.6-4.1,0.2l-2.6,5.5l-0.3,0.5c-0.2,0.3-0.4,0.7-0.5,1.1C12.3,37,12,38.2,12,39.5
		c0,5.5,4.6,10,10.2,9.8C27.7,49,32,44.2,31.6,38.9z"/>
	<path d="M4.1,52.5c0.7,0.9,2,1.3,3,0.9C8.4,52.7,8.8,51,8,49.9c-2.7-3.7-3.8-8.4-3-13.2c0.2-1.1,0.5-2.1,0.9-3.1l0,0l7.9-17.2
		c0.2-0.5,1-0.6,1.4-0.1l0.9,1.3c0.6,1,1.9,1.4,3,0.9c0.5-0.2,0.8-0.6,1-1L25,8.8c0.3-0.5,1.1-0.5,1.4,0.1c5.1,11,11.2,24,11.5,24.7
		v0.1c0.2,0.6,0.5,1.2,0.6,1.8C41.4,46.8,32.8,57,21.9,57h-18c-1.3,0-2.3,1-2.3,2.3v9.4c0,1.3,1,2.3,2.3,2.3H12l3.6,25.3
		c0.2,1.2,1.2,2,2.3,2h7.8c1.2,0,2.2-0.9,2.3-2l3.6-25.3h8.1c1.3,0,2.3-1,2.3-2.3v-9.4c0-1.3-1-2.3-2.3-2.3h-4.5
		c5.1-4,8.4-10.2,8.4-17.2c0-2.7-0.5-5.5-1.6-8c0-0.1-0.1-0.1-0.1-0.2c-0.9-2-11-23.4-14.2-30.2c-0.4-0.8-1.1-1.3-2-1.4
		c-0.9-0.1-1.7,0.4-2.2,1.2l-5.9,10.6l-1.8-2.9c-0.5-0.7-1.2-1.2-2.1-1.1c-0.9,0.1-1.6,0.5-2,1.3L1.6,31.7c-0.1,0.1-0.1,0.2-0.1,0.3
		c-0.9,2.5-1.4,5.2-1.4,7.8C0,44.5,1.4,48.8,4.1,52.5z M23.8,93.1c-0.1,0.4-0.4,0.7-0.8,0.7h-2.3c-0.4,0-0.7-0.3-0.8-0.7l-3-21.1
		c-0.1-0.5,0.3-0.9,0.8-0.9h8.4c0.5,0,0.9,0.4,0.8,0.9L23.8,93.1z M36.7,61.7c0.5,0,0.8,0.3,0.8,0.8v3.1c0,0.5-0.3,0.8-0.8,0.8H7
		c-0.5,0-0.8-0.3-0.8-0.8v-3.1c0-0.5,0.3-0.8,0.8-0.8H36.7z"/>
</g>
</svg>
