<?xml version="1.0" encoding="utf-8"?>
<!-- Generator: Adobe Illustrator 25.0.0, SVG Export Plug-In . SVG Version: 6.00 Build 0)  -->
<svg version="1.1" id="Layer_1" xmlns="http://www.w3.org/2000/svg" xmlns:xlink="http://www.w3.org/1999/xlink" x="0px" y="0px"
	 viewBox="0 0 262.6 55.7" style="enable-background:new 0 0 262.6 55.7;" xml:space="preserve">
<style type="text/css">
	.st0{fill:#F16722;}
	.st1{fill:#EC2024;}
	.st2{fill:#606867;}
</style>
<g>
	<path class="st0" d="M262,11.6h-16.8v3.7h11.3l-11.8,13.5v3.1h17.9v-3.7h-12.4L262,14.7V11.6z M239.3,15.3v-3.7h-9.5v-7l-4.1,1.4
		v5.7H221v3.7h4.6v8.6c0,5.2,1.2,8.5,8.2,8.5c1.4,0,3.5-0.5,5.5-1v-3.7c-1.6,0.5-3.9,0.9-5,0.9c-3.9,0-4.6-1.5-4.6-4.7v-8.6H239.3z
		 M196.6,21.7c0-3.9,2-6.9,6.9-6.9c3,0,5.5,1.3,6.5,2.7V26c-1.3,1.5-3.6,2.7-6.5,2.7C198.7,28.7,196.6,25.7,196.6,21.7 M210.1,13.1
		c-1.4-0.9-4.3-2.1-6.8-2.1c-6.8,0-10.8,4.3-10.8,10.6s4,10.6,10.8,10.6c2.4,0,5.1-0.9,6.9-2.2c0.4,1.3,1.9,2.2,3.9,2.2
		c1.2,0,2.4-0.3,3.5-0.7V29c-0.5,0.2-1,0.3-1.5,0.3c-1.3,0-2-0.4-2-1.9v-16L210.1,13.1z M180.6,1.4v30.4h4.1V0L180.6,1.4z
		 M168.5,21.7c0,3.9-2,6.9-6.9,6.9c-3,0-5.5-1.3-6.5-2.7v-8.5c1.3-1.5,3.5-2.7,6.5-2.7C166.5,14.8,168.5,17.7,168.5,21.7
		 M172.6,21.7c0-6.3-4-10.6-10.8-10.6c-2.5,0-5,0.9-6.8,2.1v-2.6l-4.1,1.4v31h4.1V30.3c1.4,0.9,4.3,2.1,6.8,2.1
		C168.7,32.4,172.6,28,172.6,21.7"/>
	<path class="st1" d="M132,12v19.9h4.1v-14c1.9-1.5,6.5-2.6,9-2.6v-4.5c-2.1,0-6.7,1.5-9,3.5v-3.8L132,12z M107,19.4
		c0.8-3.3,3.9-4.7,7.2-4.7c4.5,0,6.4,2.6,5.5,4.7H107z M106.8,22.7h15.8c3-3.5,1.5-11.7-8.4-11.7c-6.8,0-11.6,3.8-11.6,10.7
		c0,6.9,4.8,10.6,11.8,10.6c3.9,0,7.4-1.1,9.4-2.1v-4c-2,1.5-5.9,2.5-8.5,2.5C109.9,28.8,107,26.9,106.8,22.7 M76.8,21.7
		c0-3.9,2-6.9,6.9-6.9c3,0,5.5,1.3,6.5,2.7V26c-1.3,1.5-3.6,2.7-6.5,2.7C78.8,28.7,76.8,25.7,76.8,21.7 M90.3,13.1
		c-1.4-0.9-4.3-2.1-6.8-2.1c-6.8,0-10.8,4.3-10.8,10.7s4,10.6,10.8,10.6c2.4,0,5.1-0.9,6.9-2.2c0.4,1.3,1.9,2.2,3.9,2.2
		c1.2,0,2.4-0.3,3.5-0.7V29c-0.5,0.2-1,0.3-1.5,0.3c-1.3,0-2-0.4-2-1.9V0l-4.1,1.4V13.1z M61.1,18.9v12.9h4.1V18.6
		c0-3.7-1-7.5-8.2-7.5c-2.2,0-6,1-8.1,2v-2.5L44.8,12v19.9h4.1V16.9c1.6-0.9,5.1-2,7.8-2C60.5,14.9,61.1,16.4,61.1,18.9 M35.8,1.4
		h-4.1v4.1h4.1V1.4z M31.7,12v19.9h4.1V10.5L31.7,12z M4.1,16.2V1.4H0v30.4h4.1V19.7c9.2-1.9,11.2,4.6,13.4,9.7
		c0.5,1.2,1.8,2.9,4.2,2.9c1.2,0,2.4-0.3,3.5-0.7V29c-0.5,0.2-1,0.3-1.5,0.3c-1.3,0-1.9-0.5-2.7-2.3c-2.1-5.2-4.2-10.3-11.1-11.2
		L23.1,1.4h-5.5L4.1,16.2z"/>
</g>
<g>
	<path class="st2" d="M5.9,46.4c-2.3,0-2.7,1.4-2.7,3.3c0,1.9,0.5,3.3,2.7,3.3c1.2,0,2.2-0.3,3-0.7V55c-1,0.4-2.2,0.7-3.6,0.7
		c-3.8,0-5.3-2.4-5.3-6c0-3.5,1.5-6,5.3-6c1.4,0,2.7,0.3,3.6,0.7v2.7C8.1,46.7,7,46.4,5.9,46.4z"/>
	<path class="st2" d="M13.7,55.5h-3.1V44.1l3.1-0.9v5c0.9-0.3,2.1-0.6,2.8-0.6c2.4,0,3.1,1.1,3.1,2.7c0,0.7,0,5.2,0,5.2h-3.1
		c0,0,0-3.7,0-4.4c0-0.8-0.4-1-1.2-1c-0.4,0-1,0.2-1.6,0.4V55.5z"/>
	<path class="st2" d="M24.9,43.9v2.3h-3.1v-2.3H24.9z M24.9,47.4v8.1h-3.1v-7.1L24.9,47.4z"/>
	<path class="st2" d="M27.3,55.5V44.1l3.1-0.9v12.3H27.3z"/>
	<path class="st2" d="M38.7,44.1l3.1-0.9v9.5c0,0.6,0.2,0.8,0.7,0.8c0.2,0,0.4,0,0.6-0.1v1.9c-0.7,0.3-1.4,0.4-2.1,0.4
		c-0.8,0-1.5-0.2-1.9-0.6c-0.6,0.4-1.5,0.6-2.4,0.6c-2.8,0-4.3-1.6-4.3-4c0-2.4,1.5-4,4.3-4c0.7,0,1.4,0.1,1.9,0.4V44.1z M38.7,50.3
		c-0.3-0.3-0.8-0.4-1.4-0.4c-1.3,0-1.8,0.7-1.8,1.7s0.5,1.7,1.8,1.7c0.6,0,1.1-0.2,1.4-0.4V50.3z"/>
	<path class="st2" d="M49.1,55.7c-3.2,0-4.9-1.6-4.9-4c0-2.7,2-4,4.8-4c3,0,4.2,1.7,3.6,3.3h-2.7c0.2-0.5,0-1-0.9-1
		c-1.1,0-1.7,0.6-1.7,1.8c0,1.2,0.7,1.7,2.1,1.7c1.3,0,2.2-0.3,3.4-0.8v2.3C51.7,55.3,51,55.7,49.1,55.7z"/>
	<path class="st2" d="M63.5,47.6v5.1c0,0.6,0.2,0.8,0.7,0.8c0.2,0,0.4,0,0.6-0.1v1.9c-0.7,0.3-1.4,0.4-2.1,0.4
		c-0.8,0-1.5-0.2-1.9-0.6c-0.6,0.4-1.5,0.6-2.4,0.6c-2.8,0-4.3-1.6-4.3-4c0-2.4,1.5-4,4.3-4c1,0,1.9,0.3,2.6,0.7L63.5,47.6z
		 M60.4,50.3c-0.3-0.3-0.8-0.4-1.4-0.4c-1.3,0-1.8,0.7-1.8,1.7s0.5,1.7,1.8,1.7c0.6,0,1.1-0.2,1.4-0.4V50.3z"/>
	<path class="st2" d="M72.4,47.5v2.8c-0.8,0-2.2,0.2-3,0.6v4.5h-3.1v-7.2l3.1-0.9v1.2C70.3,47.9,71.7,47.5,72.4,47.5z"/>
	<path class="st2" d="M78.6,53.8c1.3,0,2.3-0.3,3.5-0.8v1.9c-1.1,0.4-2.2,0.7-3.8,0.7c-3.2,0-5.1-1.4-5.1-4c0-2.7,2.1-4,5.1-4
		c3.1,0,4.2,1.6,4.2,3c0,0.6-0.2,1.2-0.6,1.7h-5.7C76.5,53.5,77.5,53.8,78.6,53.8z M79.7,50.7c0.2-0.5-0.1-1.2-1.3-1.2
		c-1,0-1.7,0.3-1.9,1.2H79.7z"/>
	<path class="st2" d="M93.1,55.7c-2.1,0-4.3-0.7-4.3-3.2c0-1.6,1.2-2.5,2.6-3.2c-0.3-0.7-0.4-1.4-0.4-2.2c0-1.7,1.6-3.3,4-3.3
		c2.6,0,3.9,1.1,3.9,2.7c0,2.1-1.9,3-3.8,3.7c1.3,1.4,3.6,2.6,6.6,2.9v2.4c-1.8-0.1-3.5-0.5-5.1-1.2C95.5,55.4,94.1,55.7,93.1,55.7z
		 M91.7,52.3c0,0.7,0.5,1.1,1.3,1.1c0.5,0,0.9-0.2,1.2-0.4c-0.7-0.5-1.3-1.1-1.8-1.7C92,51.6,91.7,51.9,91.7,52.3z M95.9,46.7
		c0-0.4-0.4-0.6-0.9-0.6c-0.8,0-1.1,0.6-1.1,1.5c0,0.2,0,0.5,0.1,0.7C95.1,47.8,95.9,47.3,95.9,46.7z"/>
	<path class="st2" d="M106.8,52.2c0-1.2,0.7-2.3,1.9-2.8c-0.8-0.4-1.5-1.2-1.5-2.5c0-1.8,1.4-3.2,4.7-3.2c1.8,0,2.7,0.1,4.2,0.3v2.6
		c-1.5-0.2-2.5-0.3-4.2-0.3c-1.1,0-1.6,0.3-1.6,0.9c0,0.6,0.5,0.9,1.6,0.9h3.7v2.6h-3.7c-1.1,0-1.9,0.3-1.9,1.1
		c0,0.8,0.8,1.2,1.9,1.2c2,0,3.2-0.1,4.5-0.3v2.6c-1.1,0.1-2.4,0.3-4.5,0.3C108.4,55.7,106.8,54.1,106.8,52.2z"/>
	<path class="st2" d="M124.3,44.1l3.1-0.9v9.5c0,0.6,0.2,0.8,0.7,0.8c0.2,0,0.4,0,0.6-0.1v1.9c-0.7,0.3-1.4,0.4-2.1,0.4
		c-0.8,0-1.5-0.2-1.9-0.6c-0.6,0.4-1.5,0.6-2.4,0.6c-2.8,0-4.3-1.6-4.3-4c0-2.4,1.5-4,4.3-4c0.7,0,1.4,0.1,1.9,0.4V44.1z
		 M124.3,50.3c-0.3-0.3-0.8-0.4-1.4-0.4c-1.3,0-1.8,0.7-1.8,1.7s0.5,1.7,1.8,1.7c0.6,0,1.1-0.2,1.4-0.4V50.3z"/>
	<path class="st2" d="M133.1,55.7c-2.4,0-3.1-1.1-3.1-2.7c0-0.7,0-5.2,0-5.2h3.1c0,0,0,3.7,0,4.4c0,0.8,0.5,1,1.2,1
		c0.4,0,0.9-0.1,1.5-0.4v-5.1h3.1v4.9c0,0.6,0.2,0.8,0.7,0.8c0.2,0,0.4,0,0.6-0.1v1.9c-0.7,0.3-1.4,0.4-2.1,0.4
		c-0.9,0-1.6-0.3-2-0.7C135.1,55.4,133.8,55.7,133.1,55.7z"/>
	<path class="st2" d="M146.2,55.7c-3.2,0-4.9-1.6-4.9-4c0-2.7,2-4,4.8-4c3,0,4.2,1.7,3.6,3.3H147c0.2-0.5,0-1-0.9-1
		c-1.1,0-1.7,0.6-1.7,1.8c0,1.2,0.7,1.7,2.1,1.7c1.3,0,2.2-0.3,3.4-0.8v2.3C148.8,55.3,148.1,55.7,146.2,55.7z"/>
	<path class="st2" d="M160.6,47.6v5.1c0,0.6,0.2,0.8,0.7,0.8c0.2,0,0.4,0,0.6-0.1v1.9c-0.7,0.3-1.4,0.4-2.1,0.4
		c-0.8,0-1.5-0.2-1.9-0.6c-0.6,0.4-1.5,0.6-2.4,0.6c-2.8,0-4.3-1.6-4.3-4c0-2.4,1.5-4,4.3-4c1,0,1.9,0.3,2.6,0.7L160.6,47.6z
		 M157.5,50.3c-0.3-0.3-0.8-0.4-1.4-0.4c-1.3,0-1.8,0.7-1.8,1.7s0.5,1.7,1.8,1.7c0.6,0,1.1-0.2,1.4-0.4V50.3z"/>
	<path class="st2" d="M167.4,50.1v1.3c0,1.7,0.3,1.9,1.5,1.9c0.4,0,0.8-0.1,1.3-0.3v2.1c-0.8,0.3-1.6,0.5-2.4,0.5
		c-3.2,0-3.6-1.5-3.6-3.8v-1.7h-1.7v-2.3h1.7v-1.9l3.1-0.9v2.8h2.8v2.3H167.4z"/>
	<path class="st2" d="M175.3,43.9v2.3h-3.1v-2.3H175.3z M175.3,47.4v8.1h-3.1v-7.1L175.3,47.4z"/>
	<path class="st2" d="M182.2,55.7c-3.3,0-4.8-1.6-4.8-4c0-2.4,1.5-4,4.8-4c3.3,0,4.8,1.6,4.8,4C187,54,185.5,55.7,182.2,55.7z
		 M182.2,49.9c-1.3,0-1.7,0.8-1.7,1.7c0,1,0.4,1.7,1.7,1.7c1.3,0,1.7-0.7,1.7-1.7C183.9,50.7,183.4,49.9,182.2,49.9z"/>
	<path class="st2" d="M191.9,55.5h-3.1v-7.2l3.1-0.9v0.9c0.9-0.3,2.1-0.6,2.8-0.6c2.4,0,3.1,1.1,3.1,2.7c0,0.7,0,5.2,0,5.2h-3.1
		c0,0,0-3.7,0-4.4c0-0.8-0.4-1-1.2-1c-0.4,0-1,0.2-1.6,0.4V55.5z"/>
	<path class="st2" d="M210,46.4c-2.3,0-2.7,1.4-2.7,3.3c0,1.9,0.5,3.3,2.7,3.3c1.2,0,2.2-0.3,3-0.7V55c-1,0.4-2.2,0.7-3.6,0.7
		c-3.8,0-5.3-2.4-5.3-6c0-3.5,1.5-6,5.3-6c1.4,0,2.7,0.3,3.6,0.7v2.7C212.2,46.7,211.1,46.4,210,46.4z"/>
	<path class="st2" d="M219.7,53.8c1.3,0,2.3-0.3,3.5-0.8v1.9c-1.1,0.4-2.2,0.7-3.8,0.7c-3.2,0-5.1-1.4-5.1-4c0-2.7,2.1-4,5.1-4
		c3.1,0,4.2,1.6,4.2,3c0,0.6-0.2,1.2-0.6,1.7h-5.7C217.5,53.5,218.6,53.8,219.7,53.8z M220.7,50.7c0.2-0.5-0.1-1.2-1.3-1.2
		c-1,0-1.7,0.3-1.9,1.2H220.7z"/>
	<path class="st2" d="M228.8,55.5h-3.1v-7.2l3.1-0.9v0.9c0.9-0.3,2.1-0.6,2.8-0.6c2.4,0,3.1,1.1,3.1,2.7c0,0.7,0,5.2,0,5.2h-3.1
		c0,0,0-3.7,0-4.4c0-0.8-0.4-1-1.2-1c-0.4,0-1,0.2-1.6,0.4V55.5z"/>
	<path class="st2" d="M240.8,50.1v1.3c0,1.7,0.3,1.9,1.5,1.9c0.4,0,0.8-0.1,1.3-0.3v2.1c-0.8,0.3-1.6,0.5-2.4,0.5
		c-3.2,0-3.6-1.5-3.6-3.8v-1.7h-1.7v-2.3h1.7v-1.9l3.1-0.9v2.8h2.8v2.3H240.8z"/>
	<path class="st2" d="M250.5,53.8c1.3,0,2.3-0.3,3.5-0.8v1.9c-1.1,0.4-2.2,0.7-3.8,0.7c-3.2,0-5.1-1.4-5.1-4c0-2.7,2.1-4,5.1-4
		c3.1,0,4.2,1.6,4.2,3c0,0.6-0.2,1.2-0.6,1.7h-5.7C248.3,53.5,249.4,53.8,250.5,53.8z M251.5,50.7c0.2-0.5-0.1-1.2-1.3-1.2
		c-1,0-1.7,0.3-1.9,1.2H251.5z"/>
	<path class="st2" d="M262.6,47.5v2.8c-0.8,0-2.2,0.2-3,0.6v4.5h-3.1v-7.2l3.1-0.9v1.2C260.5,47.9,261.9,47.5,262.6,47.5z"/>
</g>
</svg>
