<svg height='100px' width='100px'  fill="#000000" xmlns="http://www.w3.org/2000/svg" viewBox="0 0 64 64" x="0px" y="0px"><g><path d="M22,25v4a1,1,0,0,0,1,1h1.382l1,2H25a1,1,0,0,0-1,1v4a1,1,0,0,0,1,1h1.117l2.891,23.124A1,1,0,0,0,30,62h4a1,1,0,0,0,.992-.876L37.883,38H39a1,1,0,0,0,1-1V33a1,1,0,0,0-1-1h-.382l1-2H41a1,1,0,0,0,1-1V25a1,1,0,0,0-1-1h-.28A6.571,6.571,0,0,0,43,19a8.479,8.479,0,0,0-3.445-6.832A1,1,0,0,0,38,13a3.249,3.249,0,0,1-1.88,2.855c-.7-.793-.183-2.5-.183-2.5a8.416,8.416,0,0,0-.068-7.069A9.443,9.443,0,0,0,30.243,2.03a1,1,0,0,0-1,1.619c1.1,1.286.067,2.6-2.546,5.286C24.494,11.2,22,13.763,22,17a11.1,11.1,0,0,0,2.6,7H23A1,1,0,0,0,22,25ZM33.117,60H30.883l-2.75-22h7.734ZM38,36H26V34H38ZM26.618,30H37.382l-1,2H27.618ZM24,17c0-2.425,2.1-4.584,4.127-6.671C29.79,8.619,31.609,6.748,31.7,4.81a6.233,6.233,0,0,1,2.4,2.4,6.557,6.557,0,0,1-.047,5.472c-.473,1.42-.689,4.115,1.5,5.211a1,1,0,0,0,.763.054,5.863,5.863,0,0,0,3.293-2.973A6.432,6.432,0,0,1,41,19c0,3.462-3.623,5-5,5H27.362A9.763,9.763,0,0,1,24,17Zm0,9H40v2H24Z"></path><path d="M29.707,21.293A6.608,6.608,0,0,1,28,17c0-1.15,1.128-2.461,2.3-3.5a8.447,8.447,0,0,0,.509,5.366A4.247,4.247,0,0,0,33.8,20.98l.392-1.96A2.222,2.222,0,0,1,32.562,17.9c-1.016-1.824-.074-5.346.375-6.549a1,1,0,0,0-1.452-1.207C30.924,10.479,26,13.534,26,17a8.646,8.646,0,0,0,2.293,5.707Z"></path><rect x="36" y="20" width="2" height="2"></rect><rect x="31" y="40" width="2" height="2"></rect><rect x="31" y="44" width="2" height="2"></rect></g></svg>